<?xml version="1.0" encoding="UTF-8"?>
<!--Generator: Apple Native CoreSVG 175.5-->
<!DOCTYPE svg
PUBLIC "-//W3C//DTD SVG 1.1//EN"
       "http://www.w3.org/Graphics/SVG/1.1/DTD/svg11.dtd">
<svg version="1.1" xmlns="http://www.w3.org/2000/svg" xmlns:xlink="http://www.w3.org/1999/xlink" width="3300" height="2200">
 <!--glyph: "", point size: 100.0, font version: "18.0d11e1", template writer version: "90"-->
 <style>.monochrome-0 {fill:#000000;-sfsymbols-variable-threshold:0.0}

.multicolor-0:tintColor {fill:#007AFF;-sfsymbols-variable-threshold:0.0}

.hierarchical-0:primary {fill:#212121;-sfsymbols-variable-threshold:0.0}

.SFSymbolsPreview007AFF {fill:#007AFF;opacity:1.0}
</style>
 <g id="Notes">
  <rect height="2200" id="artboard" style="fill:white;opacity:1" width="3300" x="0" y="0"/>
  <line style="fill:none;stroke:black;opacity:1;stroke-width:0.5;" x1="263" x2="3036" y1="292" y2="292"/>
  <text style="stroke:none;fill:black;font-family:sans-serif;font-size:13;font-weight:bold;" transform="matrix(1 0 0 1 263 322)">Weight/Scale Variations</text>
  <text style="stroke:none;fill:black;font-family:sans-serif;font-size:13;text-anchor:middle;" transform="matrix(1 0 0 1 559.711 322)">Ultralight</text>
  <text style="stroke:none;fill:black;font-family:sans-serif;font-size:13;text-anchor:middle;" transform="matrix(1 0 0 1 856.422 322)">Thin</text>
  <text style="stroke:none;fill:black;font-family:sans-serif;font-size:13;text-anchor:middle;" transform="matrix(1 0 0 1 1153.13 322)">Light</text>
  <text style="stroke:none;fill:black;font-family:sans-serif;font-size:13;text-anchor:middle;" transform="matrix(1 0 0 1 1449.84 322)">Regular</text>
  <text style="stroke:none;fill:black;font-family:sans-serif;font-size:13;text-anchor:middle;" transform="matrix(1 0 0 1 1746.56 322)">Medium</text>
  <text style="stroke:none;fill:black;font-family:sans-serif;font-size:13;text-anchor:middle;" transform="matrix(1 0 0 1 2043.27 322)">Semibold</text>
  <text style="stroke:none;fill:black;font-family:sans-serif;font-size:13;text-anchor:middle;" transform="matrix(1 0 0 1 2339.98 322)">Bold</text>
  <text style="stroke:none;fill:black;font-family:sans-serif;font-size:13;text-anchor:middle;" transform="matrix(1 0 0 1 2636.69 322)">Heavy</text>
  <text style="stroke:none;fill:black;font-family:sans-serif;font-size:13;text-anchor:middle;" transform="matrix(1 0 0 1 2933.4 322)">Black</text>
  <line style="fill:none;stroke:black;opacity:1;stroke-width:0.5;" x1="263" x2="3036" y1="1903" y2="1903"/>
  <g transform="matrix(1 0 0 1 263 1933)">
   <path d="M9.24805 0.830078C13.5547 0.830078 17.1387-2.74414 17.1387-7.05078C17.1387-11.3574 13.5449-14.9316 9.23828-14.9316C4.94141-14.9316 1.36719-11.3574 1.36719-7.05078C1.36719-2.74414 4.95117 0.830078 9.24805 0.830078ZM9.24805-0.654297C5.70312-0.654297 2.87109-3.49609 2.87109-7.05078C2.87109-10.6055 5.69336-13.4473 9.23828-13.4473C12.793-13.4473 15.6445-10.6055 15.6445-7.05078C15.6445-3.49609 12.8027-0.654297 9.24805-0.654297ZM5.6543-7.05078C5.6543-6.62109 5.95703-6.32812 6.40625-6.32812L8.50586-6.32812L8.50586-4.20898C8.50586-3.76953 8.79883-3.4668 9.22852-3.4668C9.67773-3.4668 9.9707-3.76953 9.9707-4.20898L9.9707-6.32812L12.0898-6.32812C12.5293-6.32812 12.832-6.62109 12.832-7.05078C12.832-7.49023 12.5293-7.79297 12.0898-7.79297L9.9707-7.79297L9.9707-9.90234C9.9707-10.3516 9.67773-10.6543 9.22852-10.6543C8.79883-10.6543 8.50586-10.3516 8.50586-9.90234L8.50586-7.79297L6.40625-7.79297C5.95703-7.79297 5.6543-7.49023 5.6543-7.05078Z"/>
  </g>
  <g transform="matrix(1 0 0 1 281.867 1933)">
   <path d="M11.709 2.91016C17.1582 2.91016 21.6699-1.61133 21.6699-7.05078C21.6699-12.5 17.1484-17.0117 11.6992-17.0117C6.25977-17.0117 1.74805-12.5 1.74805-7.05078C1.74805-1.61133 6.26953 2.91016 11.709 2.91016ZM11.709 1.25C7.09961 1.25 3.41797-2.44141 3.41797-7.05078C3.41797-11.6602 7.08984-15.3516 11.6992-15.3516C16.3086-15.3516 20.0098-11.6602 20.0098-7.05078C20.0098-2.44141 16.3184 1.25 11.709 1.25ZM7.17773-7.05078C7.17773-6.57227 7.50977-6.25 8.00781-6.25L10.8789-6.25L10.8789-3.36914C10.8789-2.88086 11.2109-2.53906 11.6895-2.53906C12.1777-2.53906 12.5195-2.87109 12.5195-3.36914L12.5195-6.25L15.4004-6.25C15.8887-6.25 16.2305-6.57227 16.2305-7.05078C16.2305-7.53906 15.8887-7.88086 15.4004-7.88086L12.5195-7.88086L12.5195-10.752C12.5195-11.25 12.1777-11.5918 11.6895-11.5918C11.2109-11.5918 10.8789-11.25 10.8789-10.752L10.8789-7.88086L8.00781-7.88086C7.50977-7.88086 7.17773-7.53906 7.17773-7.05078Z"/>
  </g>
  <g transform="matrix(1 0 0 1 305.646 1933)">
   <path d="M14.9707 5.66406C21.9336 5.66406 27.6953-0.0976562 27.6953-7.05078C27.6953-14.0137 21.9238-19.7754 14.9609-19.7754C8.00781-19.7754 2.25586-14.0137 2.25586-7.05078C2.25586-0.0976562 8.01758 5.66406 14.9707 5.66406ZM14.9707 3.84766C8.93555 3.84766 4.08203-1.01562 4.08203-7.05078C4.08203-13.0957 8.92578-17.9492 14.9609-17.9492C21.0059-17.9492 25.8691-13.0957 25.8691-7.05078C25.8691-1.01562 21.0156 3.84766 14.9707 3.84766ZM9.19922-7.05078C9.19922-6.5332 9.57031-6.17188 10.1172-6.17188L14.0625-6.17188L14.0625-2.2168C14.0625-1.67969 14.4336-1.29883 14.9512-1.29883C15.4883-1.29883 15.8594-1.66992 15.8594-2.2168L15.8594-6.17188L19.8145-6.17188C20.3516-6.17188 20.7324-6.5332 20.7324-7.05078C20.7324-7.59766 20.3613-7.96875 19.8145-7.96875L15.8594-7.96875L15.8594-11.9141C15.8594-12.4609 15.4883-12.8418 14.9512-12.8418C14.4336-12.8418 14.0625-12.4609 14.0625-11.9141L14.0625-7.96875L10.1172-7.96875C9.57031-7.96875 9.19922-7.59766 9.19922-7.05078Z"/>
  </g>
  <text style="stroke:none;fill:black;font-family:sans-serif;font-size:13;font-weight:bold;" transform="matrix(1 0 0 1 263 1953)">Design Variations</text>
  <text style="stroke:none;fill:black;font-family:sans-serif;font-size:13;" transform="matrix(1 0 0 1 263 1971)">Symbols are supported in up to nine weights and three scales.</text>
  <text style="stroke:none;fill:black;font-family:sans-serif;font-size:13;" transform="matrix(1 0 0 1 263 1989)">For optimal layout with text and other symbols, vertically align</text>
  <text style="stroke:none;fill:black;font-family:sans-serif;font-size:13;" transform="matrix(1 0 0 1 263 2007)">symbols with the adjacent text.</text>
  <line style="fill:none;stroke:#00AEEF;stroke-width:0.5;opacity:1.0;" x1="776" x2="776" y1="1919" y2="1933"/>
  <g transform="matrix(1 0 0 1 776 1933)">
   <path d="M3.31055 0.15625C3.82812 0.15625 4.08203-0.0390625 4.26758-0.585938L5.52734-4.0332L11.2891-4.0332L12.5488-0.585938C12.7344-0.0390625 12.9883 0.15625 13.4961 0.15625C14.0137 0.15625 14.3457-0.15625 14.3457-0.644531C14.3457-0.810547 14.3164-0.966797 14.2383-1.17188L9.6582-13.3691C9.43359-13.9648 9.0332-14.2676 8.4082-14.2676C7.80273-14.2676 7.39258-13.9746 7.17773-13.3789L2.59766-1.16211C2.51953-0.957031 2.49023-0.800781 2.49023-0.634766C2.49023-0.146484 2.80273 0.15625 3.31055 0.15625ZM6.00586-5.51758L8.37891-12.0898L8.42773-12.0898L10.8008-5.51758Z"/>
  </g>
  <line style="fill:none;stroke:#00AEEF;stroke-width:0.5;opacity:1.0;" x1="793.197" x2="793.197" y1="1919" y2="1933"/>
  <text style="stroke:none;fill:black;font-family:sans-serif;font-size:13;font-weight:bold;" transform="matrix(1 0 0 1 776 1953)">Margins</text>
  <text style="stroke:none;fill:black;font-family:sans-serif;font-size:13;" transform="matrix(1 0 0 1 776 1971)">Leading and trailing margins on the left and right side of each symbol</text>
  <text style="stroke:none;fill:black;font-family:sans-serif;font-size:13;" transform="matrix(1 0 0 1 776 1989)">can be adjusted by modifying the x-location of the margin guidelines.</text>
  <text style="stroke:none;fill:black;font-family:sans-serif;font-size:13;" transform="matrix(1 0 0 1 776 2007)">Modifications are automatically applied proportionally to all</text>
  <text style="stroke:none;fill:black;font-family:sans-serif;font-size:13;" transform="matrix(1 0 0 1 776 2025)">scales and weights.</text>
  <g transform="matrix(1 0 0 1 1289 1933)">
   <path d="M2.8418 1.86523L4.54102 3.57422C5.40039 4.44336 6.38672 4.38477 7.31445 3.35938L18.0078-8.42773L17.041-9.4043L6.42578 2.27539C6.07422 2.67578 5.74219 2.77344 5.27344 2.30469L4.10156 1.14258C3.63281 0.683594 3.74023 0.341797 4.14062-0.0195312L15.6152-10.8203L14.6387-11.7871L3.04688-0.898438C2.06055 0.0195312 1.98242 0.996094 2.8418 1.86523ZM9.25781-16.3281C8.83789-15.918 8.80859-15.3418 9.04297-14.9512C9.27734-14.5898 9.73633-14.3555 10.3809-14.5215C11.8457-14.8633 13.3691-14.9219 14.7949-13.9844L14.209-12.5293C13.8672-11.6992 14.043-11.1133 14.5801-10.5664L16.875-8.25195C17.3633-7.76367 17.7734-7.74414 18.3398-7.8418L19.4043-8.03711L20.0684-7.36328L20.0293-6.80664C19.9902-6.30859 20.1172-5.92773 20.6055-5.44922L21.3672-4.70703C21.8457-4.22852 22.4609-4.19922 22.9297-4.66797L25.8398-7.58789C26.3086-8.05664 26.2891-8.65234 25.8105-9.13086L25.0391-9.89258C24.5605-10.3711 24.1895-10.5273 23.7109-10.4883L23.1348-10.4395L22.4902-11.0742L22.7344-12.1973C22.8613-12.7637 22.7051-13.2031 22.1191-13.7891L19.9219-15.9766C16.582-19.2969 12.1484-19.2188 9.25781-16.3281ZM10.752-15.957C13.1836-17.7344 16.4746-17.4316 18.7012-15.2051L21.1328-12.793C21.3672-12.5586 21.4062-12.373 21.3379-12.0312L21.0156-10.5469L22.5195-9.0625L23.5059-9.12109C23.7598-9.13086 23.8379-9.11133 24.0332-8.91602L24.6094-8.33984L22.168-5.89844L21.5918-6.47461C21.3965-6.66992 21.3672-6.74805 21.377-7.01172L21.4453-7.98828L19.9512-9.47266L18.4277-9.21875C18.1055-9.15039 17.959-9.17969 17.7148-9.41406L15.7129-11.416C15.459-11.6504 15.4297-11.8164 15.5859-12.1875L16.4648-14.2773C14.9023-15.7324 12.8711-16.3574 10.8398-15.7617C10.6836-15.7227 10.625-15.8496 10.752-15.957Z"/>
  </g>
  <text style="stroke:none;fill:black;font-family:sans-serif;font-size:13;font-weight:bold;" transform="matrix(1 0 0 1 1289 1953)">Exporting</text>
  <text style="stroke:none;fill:black;font-family:sans-serif;font-size:13;" transform="matrix(1 0 0 1 1289 1971)">Symbols should be outlined when exporting to ensure the</text>
  <text style="stroke:none;fill:black;font-family:sans-serif;font-size:13;" transform="matrix(1 0 0 1 1289 1989)">design is preserved when submitting to Xcode.</text>
  <text id="template-version" style="stroke:none;fill:black;font-family:sans-serif;font-size:13;text-anchor:end;" transform="matrix(1 0 0 1 3036 1933)">Template v.4.0</text>
  <text style="stroke:none;fill:black;font-family:sans-serif;font-size:13;text-anchor:end;" transform="matrix(1 0 0 1 3036 1951)">Requires Xcode 14 or greater</text>
  <text id="descriptive-name" style="stroke:none;fill:black;font-family:sans-serif;font-size:13;text-anchor:end;" transform="matrix(1 0 0 1 3036 1969)">Generated from custom.teddybear.fill</text>
  <text style="stroke:none;fill:black;font-family:sans-serif;font-size:13;text-anchor:end;" transform="matrix(1 0 0 1 3036 1987)">Typeset at 100 points</text>
  <text style="stroke:none;fill:black;font-family:sans-serif;font-size:13;" transform="matrix(1 0 0 1 263 726)">Small</text>
  <text style="stroke:none;fill:black;font-family:sans-serif;font-size:13;" transform="matrix(1 0 0 1 263 1156)">Medium</text>
  <text style="stroke:none;fill:black;font-family:sans-serif;font-size:13;" transform="matrix(1 0 0 1 263 1586)">Large</text>
 </g>
 <g id="Guides">
  <g id="H-reference" style="fill:#27AAE1;stroke:none;" transform="matrix(1 0 0 1 339 696)">
   <path d="M0.993654 0L3.63775 0L29.3281-67.1323L30.0303-67.1323L30.0303-70.459L28.1226-70.459ZM11.6885-24.4799L46.9815-24.4799L46.2315-26.7285L12.4385-26.7285ZM55.1196 0L57.7637 0L30.6382-70.459L29.4326-70.459L29.4326-67.1323Z"/>
  </g>
  <line id="Baseline-S" style="fill:none;stroke:#27AAE1;opacity:1;stroke-width:0.5;" x1="263" x2="3036" y1="696" y2="696"/>
  <line id="Capline-S" style="fill:none;stroke:#27AAE1;opacity:1;stroke-width:0.5;" x1="263" x2="3036" y1="625.541" y2="625.541"/>
  <g id="H-reference" style="fill:#27AAE1;stroke:none;" transform="matrix(1 0 0 1 339 1126)">
   <path d="M0.993654 0L3.63775 0L29.3281-67.1323L30.0303-67.1323L30.0303-70.459L28.1226-70.459ZM11.6885-24.4799L46.9815-24.4799L46.2315-26.7285L12.4385-26.7285ZM55.1196 0L57.7637 0L30.6382-70.459L29.4326-70.459L29.4326-67.1323Z"/>
  </g>
  <line id="Baseline-M" style="fill:none;stroke:#27AAE1;opacity:1;stroke-width:0.5;" x1="263" x2="3036" y1="1126" y2="1126"/>
  <line id="Capline-M" style="fill:none;stroke:#27AAE1;opacity:1;stroke-width:0.5;" x1="263" x2="3036" y1="1055.54" y2="1055.54"/>
  <g id="H-reference" style="fill:#27AAE1;stroke:none;" transform="matrix(1 0 0 1 339 1556)">
   <path d="M0.993654 0L3.63775 0L29.3281-67.1323L30.0303-67.1323L30.0303-70.459L28.1226-70.459ZM11.6885-24.4799L46.9815-24.4799L46.2315-26.7285L12.4385-26.7285ZM55.1196 0L57.7637 0L30.6382-70.459L29.4326-70.459L29.4326-67.1323Z"/>
  </g>
  <line id="Baseline-L" style="fill:none;stroke:#27AAE1;opacity:1;stroke-width:0.5;" x1="263" x2="3036" y1="1556" y2="1556"/>
  <line id="Capline-L" style="fill:none;stroke:#27AAE1;opacity:1;stroke-width:0.5;" x1="263" x2="3036" y1="1485.54" y2="1485.54"/>
  <line id="left-margin-Ultralight-S" style="fill:none;stroke:#00AEEF;stroke-width:0.5;opacity:1.0;" x1="513.297" x2="513.297" y1="600.784" y2="720.121"/>
  <line id="right-margin-Ultralight-S" style="fill:none;stroke:#00AEEF;stroke-width:0.5;opacity:1.0;" x1="606.125" x2="606.125" y1="600.784" y2="720.121"/>
  <line id="left-margin-Regular-S" style="fill:none;stroke:#00AEEF;stroke-width:0.5;opacity:1.0;" x1="1400.78" x2="1400.78" y1="600.784" y2="720.121"/>
  <line id="right-margin-Regular-S" style="fill:none;stroke:#00AEEF;stroke-width:0.5;opacity:1.0;" x1="1498.9" x2="1498.9" y1="600.784" y2="720.121"/>
  <line id="left-margin-Black-S" style="fill:none;stroke:#00AEEF;stroke-width:0.5;opacity:1.0;" x1="2884.18" x2="2884.18" y1="600.784" y2="720.121"/>
  <line id="right-margin-Black-S" style="fill:none;stroke:#00AEEF;stroke-width:0.5;opacity:1.0;" x1="2982.62" x2="2982.62" y1="600.784" y2="720.121"/>
 </g>
 <g id="Symbols">
  <g id="Black-S" transform="matrix(1 0 0 1 2884.18 696)">
   <path class="monochrome-0 multicolor-0:tintColor hierarchical-0:primary SFSymbolsPreview007AFF" d="M49.1778-28.6621C63.6309-28.6621 75.3497-40.3809 75.3497-54.834C75.3497-55.2246 75.3497-55.5664 75.3497-55.957C81.795-56.7871 86.7755-62.2559 86.7755-68.9453C86.7755-76.123 80.9161-81.9824 73.6895-81.9824C69.4903-81.9824 65.7306-79.9805 63.338-76.8555C59.2364-79.4922 54.4024-81.0059 49.1778-81.0059C43.9532-81.0059 39.1192-79.4922 35.0177-76.8555C32.6251-79.9805 28.8653-81.9824 24.6661-81.9824C17.4395-81.9824 11.5802-76.123 11.5802-68.9453C11.5802-62.2559 16.5606-56.7871 23.0059-55.957C23.0059-55.5664 23.0059-55.2246 23.0059-54.834C23.0059-40.3809 34.7247-28.6621 49.1778-28.6621ZM82.6251-35.0098L68.7579-41.3086L53.1329-30.4199L45.3204-30.4199L29.6954-41.3086L15.8282-35.0098C8.89458-31.8848 5.96491-23.584 9.13878-16.748C10.6524-13.5254 13.1915-11.1816 16.2677-9.91211C18.4161-17.5293 24.2755-22.9004 31.4044-22.9004C40.4376-22.9004 47.4688-14.209 47.4688-3.32031C47.4688 1.46484 46.1016 5.81055 43.8556 9.22852C46.9806 9.57031 51.4727 9.57031 54.5977 9.22852C52.3516 5.81055 50.9845 1.46484 50.9845-3.32031C50.9845-14.209 58.0157-22.9004 67.0489-22.9004C74.1778-22.9004 80.0372-17.5293 82.1856-9.91211C85.2618-11.1816 87.8009-13.5254 89.3145-16.748C92.4884-23.584 89.5587-31.8848 82.6251-35.0098ZM67.0489 12.4512C73.8848 12.4512 79.2071 5.41992 79.2071-3.32031C79.2071-11.9629 73.8848-18.9941 67.0489-18.9941C60.213-18.9941 54.8907-11.9629 54.8907-3.32031C54.8907 5.41992 60.213 12.4512 67.0489 12.4512ZM31.4044 12.4512C38.2403 12.4512 43.5626 5.41992 43.5626-3.32031C43.5626-11.9629 38.2403-18.9941 31.4044-18.9941C24.5684-18.9941 19.2462-11.9629 19.2462-3.32031C19.2462 5.41992 24.5684 12.4512 31.4044 12.4512ZM49.2755-32.373C42.6837-32.373 37.4102-37.6465 37.4102-44.2383C37.4102-50.7324 42.7325-56.1035 49.2755-56.1035C55.8184-56.1035 61.1407-50.7812 61.1407-44.2383C61.1407-37.6953 55.7696-32.373 49.2755-32.373ZM24.6661-75.7812C26.961-75.7812 29.0118-74.6582 30.2325-72.9004C27.4005-69.9219 25.2032-66.2109 24.0313-62.1582C23.7872-62.1582 23.5431-62.207 23.3477-62.2559C20.1739-62.8906 17.8302-65.625 17.8302-68.9453C17.8302-72.7051 20.9063-75.7812 24.6661-75.7812ZM73.6895-75.7812C77.4493-75.7812 80.5255-72.7051 80.5255-68.9453C80.5255-65.6738 78.1817-62.8418 75.0079-62.2559C74.7638-62.207 74.422-62.1582 74.3243-62.1582C73.1524-66.2109 70.9552-69.9219 68.1231-72.9004C69.3438-74.6582 71.3946-75.7812 73.6895-75.7812ZM49.1778-42.7734C51.5704-42.7734 55.086-46.1914 55.086-47.1191C55.086-48.6816 52.5958-50.8301 49.1778-50.8301C45.7598-50.8301 43.172-48.6816 43.172-47.1191C43.172-46.1914 46.8341-42.7734 49.1778-42.7734ZM59.5294-56.4941C57.6251-56.4941 56.0138-58.0566 56.0138-60.0098C56.0138-61.9141 57.6251-63.5254 59.5294-63.5254C61.3848-63.5254 62.9962-61.9141 62.9962-60.0098C62.9962-58.0566 61.3848-56.4941 59.5294-56.4941ZM38.8751-56.4941C37.0196-56.4941 35.4083-58.0566 35.4083-60.0098C35.4083-61.9141 37.0196-63.5254 38.8751-63.5254C40.7794-63.5254 42.3907-61.9141 42.3907-60.0098C42.3907-58.0566 40.7794-56.4941 38.8751-56.4941Z"/>
  </g>
  <g id="Regular-S" transform="matrix(1 0 0 1 1400.78 696)">
   <path class="monochrome-0 multicolor-0:tintColor hierarchical-0:primary SFSymbolsPreview007AFF" d="M49.0323-28.7598C63.4366-28.7598 75.1066-40.4297 75.1066-54.834C75.1066-55.2734 75.1066-55.6641 75.1066-56.0547C81.5519-56.8359 86.5323-62.3047 86.5323-68.9453C86.5323-76.0742 80.7218-81.8848 73.5441-81.8848C69.3448-81.8848 65.5851-79.8828 63.1925-76.7578C59.0909-79.3945 54.2569-80.9082 49.0323-80.9082C43.7589-80.9082 38.9249-79.3945 34.8234-76.7578C32.4796-79.8828 28.7198-81.8848 24.5206-81.8848C17.3429-81.8848 11.5323-76.0742 11.5323-68.9453C11.5323-62.3047 16.5128-56.8359 22.9581-56.0547C22.9093-55.6641 22.9093-55.2734 22.9093-54.834C22.9093-40.4297 34.628-28.7598 49.0323-28.7598ZM82.3819-34.8633L68.4659-41.1621L52.8898-30.4199L45.2237-30.4199L29.6964-41.1621L15.7804-34.8633C8.89557-31.7383 5.9659-23.5352 9.13977-16.748C10.6534-13.5254 13.2413-11.1328 16.3663-9.91211C18.5148-17.4805 24.2765-22.8027 31.3077-22.8027C40.2433-22.8027 47.1769-14.209 47.1769-3.41797C47.1769 1.36719 45.8585 5.66406 43.6124 9.08203C46.8351 9.47266 51.2784 9.42383 54.5011 9.08203C52.3038 5.66406 50.9366 1.36719 50.9366-3.41797C50.9366-14.209 57.8702-22.8027 66.8058-22.8027C73.837-22.8027 79.6476-17.4805 81.7472-9.91211C84.8722-11.1328 87.4601-13.5254 88.9737-16.748C92.1476-23.5352 89.2179-31.7383 82.3819-34.8633ZM66.8058 12.3047C73.5929 12.3047 78.8663 5.32227 78.8663-3.41797C78.8663-12.0117 73.5929-18.9941 66.8058-18.9941C60.0187-18.9941 54.7452-12.0117 54.7452-3.41797C54.7452 5.32227 60.0187 12.3047 66.8058 12.3047ZM31.3077 12.3047C38.0948 12.3047 43.3683 5.32227 43.3683-3.41797C43.3683-12.0117 38.0948-18.9941 31.3077-18.9941C24.5206-18.9941 19.2472-12.0117 19.2472-3.41797C19.2472 5.32227 24.5206 12.3047 31.3077 12.3047ZM49.13-32.3242C42.5382-32.3242 37.2648-37.5977 37.2648-44.1895C37.2648-50.6836 42.587-56.0547 49.13-56.0547C55.6241-56.0547 60.9464-50.7324 60.9464-44.1895C60.9464-37.6465 55.6241-32.3242 49.13-32.3242ZM24.5206-75.8789C26.8644-75.8789 28.964-74.707 30.1847-72.9004C27.3038-69.9219 25.1066-66.1621 23.9347-62.1094C23.6905-62.1094 23.4464-62.1582 23.2511-62.207C20.0284-62.793 17.587-65.5762 17.587-68.9453C17.587-72.7539 20.712-75.8789 24.5206-75.8789ZM73.5441-75.8789C77.3526-75.8789 80.4288-72.7539 80.4288-68.9453C80.4288-65.625 78.0362-62.7441 74.7648-62.207C74.5206-62.1582 74.2276-62.1094 74.0812-62.1094C72.9093-66.1621 70.712-69.9219 67.88-72.9004C69.1007-74.707 71.2003-75.8789 73.5441-75.8789ZM49.0323-42.7246C51.3761-42.7246 54.9405-46.1426 54.9405-47.0703C54.9405-48.6328 52.4503-50.7812 49.0323-50.7812C45.6144-50.7812 42.9776-48.6328 42.9776-47.0703C42.9776-46.1426 46.6886-42.7246 49.0323-42.7246ZM59.2862-56.4941C57.4308-56.4941 55.8194-58.0566 55.8194-59.9609C55.8194-61.8652 57.4308-63.4766 59.2862-63.4766C61.1417-63.4766 62.7042-61.8652 62.7042-59.9609C62.7042-58.0566 61.1417-56.4941 59.2862-56.4941ZM38.7784-56.4941C36.9718-56.4941 35.3605-58.0566 35.3605-59.9609C35.3605-61.8652 36.9718-63.4766 38.7784-63.4766C40.6827-63.4766 42.2452-61.8652 42.2452-59.9609C42.2452-58.0566 40.6827-56.4941 38.7784-56.4941Z"/>
  </g>
  <g id="Ultralight-S" transform="matrix(1 0 0 1 513.297 696)">
   <path class="monochrome-0 multicolor-0:tintColor hierarchical-0:primary SFSymbolsPreview007AFF" d="M46.4346-30.0766C60.0669-30.0766 71.192-41.1562 71.192-54.834C71.192-55.8638 71.1465-56.9355 71.0103-57.9619C77.2286-58.0166 82.2545-63.0312 82.2545-69.2632C82.2545-75.5293 77.1705-80.5679 70.9463-80.5679C66.7017-80.5679 63.0328-78.2481 61.0489-74.8052C56.9473-77.8052 51.8863-79.5913 46.4346-79.5913C40.9341-79.5913 35.8731-77.8052 31.7715-74.8052C29.8365-78.2481 26.1675-80.5679 21.9229-80.5679C15.6534-80.5679 10.5694-75.5293 10.5694-69.2632C10.5694-63.0312 15.5952-58.0166 21.8135-57.9619C21.6739-56.9355 21.6285-55.8638 21.6285-54.834C21.6285-41.1562 32.7569-30.0766 46.4346-30.0766ZM77.9678-32.1387L63.2799-38.8008L49.1114-30.7832L43.625-30.7832L29.5508-38.8008L14.8628-32.1387C9.06792-29.4678 6.50151-22.5361 9.22122-16.7026C10.8711-13.1621 14.231-10.6787 18.2188-10.1846C19.8677-16.7539 24.4942-21.4404 30.0269-21.4404C37.0098-21.4404 42.5811-13.9819 42.5811-4.73485C42.5811-0.449204 41.399 3.43898 39.4708 6.40285C44.6914 7.38381 47.9996 7.33498 53.3565 6.40285C51.4317 3.43898 50.2915-0.449204 50.2915-4.73485C50.2915-13.9819 55.8174-21.4404 62.8004-21.4404C68.3331-21.4404 72.963-16.7539 74.6085-10.1846C78.5509-10.7241 81.9561-13.1621 83.606-16.7026C86.3258-22.5361 83.7593-29.4678 77.9678-32.1387ZM62.8004 10.0796C68.6339 10.0796 73.2716 3.32423 73.2716-4.73485C73.2716-12.6929 68.6339-19.4028 62.8004-19.4028C56.9214-19.4028 52.3291-12.6929 52.3291-4.73485C52.3291 3.32423 56.9214 10.0796 62.8004 10.0796ZM30.0269 10.0796C35.9058 10.0796 40.4981 3.32423 40.4981-4.73485C40.4981-12.6929 35.9058-19.4028 30.0269-19.4028C24.1934-19.4028 19.5557-12.6929 19.5557-4.73485C19.5557 3.32423 24.1934 10.0796 30.0269 10.0796ZM46.4415-31.6431C39.9859-31.6431 34.7579-36.8711 34.7579-43.3267C34.7579-49.73 39.9893-54.9194 46.4415-54.9194C52.7994-54.9194 58.0308-49.7334 58.0308-43.3267C58.0308-36.8745 52.7994-31.6431 46.4415-31.6431ZM21.9229-77.5137C25.1294-77.5137 28.001-75.6152 29.3125-72.7642C26.023-69.6494 23.5987-65.6172 22.4268-61.0195C22.2281-61.0195 22.0293-61.023 21.834-61.0264C17.3399-61.0674 13.6724-64.7588 13.6724-69.2632C13.6724-73.8437 17.3423-77.5137 21.9229-77.5137ZM70.9463-77.5137C75.4815-77.5137 79.148-73.8437 79.148-69.2632C79.148-64.7622 75.5293-61.064 70.9864-61.0264C70.7877-61.023 70.5855-61.0195 70.3936-61.0195C69.2217-65.6172 66.7974-69.6494 63.5113-72.7642C64.8228-75.6152 67.6944-77.5137 70.9463-77.5137ZM46.4346-41.6348C48.3697-41.6348 52.6153-45.2344 52.6153-46.2075C52.6153-47.8154 49.9888-50.1001 46.4346-50.1001C42.7896-50.1001 40.1075-47.8154 40.1075-46.2075C40.1075-45.2344 44.4996-41.6348 46.4346-41.6348ZM55.2808-56.7666C53.7886-56.7666 52.5406-58.0112 52.5406-59.5068C52.5406-61.0024 53.7886-62.2051 55.2808-62.2051C56.773-62.2051 58.0176-61.0024 58.0176-59.5068C58.0176-58.0112 56.773-56.7666 55.2808-56.7666ZM37.543-56.7666C36.0542-56.7666 34.8516-58.0112 34.8516-59.5068C34.8516-61.0024 36.0542-62.2051 37.543-62.2051C39.0386-62.2051 40.2832-61.0024 40.2832-59.5068C40.2832-58.0112 39.0386-56.7666 37.543-56.7666Z"/>
  </g>
 </g>
</svg>
